# xmcd
#
# Track frame offsets:
#	183
#	17325
#	33000
#	51675
#
# Disc length: 921 seconds
# Revision: 1
# Processed by: cddbd v1.5.2PL0 Copyright (c) Steve Scherf et al.
# Submitted via: dBpowerAMP V12.0
#
DISCID=27039704
DTITLE=Bad Boys Inc. - Take Me Away (I'll Follow You) [Single Part 2]
DYEAR=1994
DGENRE=New Jack Swing
TTITLE0=Take Me Away (I'll Follow You) [West End Radio Remix]
TTITLE1=Hearts Of Fire
TTITLE2=The Girl's Alright With Me
TTITLE3=Bad Luck
EXTD=
EXTT0=
EXTT1=
EXTT2=
EXTT3=
PLAYORDER=
